<svg xmlns="http://www.w3.org/2000/svg" version="1.1" xmlns:xlink="http://www.w3.org/1999/xlink" viewBox="0 0 200 200"><rect width="200" height="200" fill="url('#gradient')"></rect><defs><linearGradient id="gradient" gradientTransform="rotate(360 0.5 0.5)"><stop offset="0%" stop-color="#f9feff"></stop><stop offset="100%" stop-color="#f7fffe"></stop></linearGradient></defs><g><g fill="#1f3491" transform="matrix(4.027751980333242,0,0,4.027751980333242,23.673901267385133,128.62155143427282)" stroke="#1c0bdb" stroke-width="0.3"><path d="M12.96-14.22L12.96 0L9.55 0L9.55-5.94L4.50-5.94L4.50 0L1.07 0L1.07-14.22L4.50-14.22L4.50-8.57L9.55-8.57L9.55-14.22L12.96-14.22ZM24.08-8.30L24.08-5.66L18.55-5.66L18.55 0L15.13 0L15.13-14.22L24.64-14.22L24.64-11.57L18.55-11.57L18.55-8.30L24.08-8.30ZM33.40-3.78L33.40-3.78Q33.40-4.53 32.87-4.95Q32.33-5.37 31.00-5.82Q29.66-6.27 28.81-6.69L28.81-6.69Q26.04-8.05 26.04-10.42L26.04-10.42Q26.04-11.60 26.73-12.50Q27.42-13.41 28.68-13.91Q29.94-14.41 31.51-14.41L31.51-14.41Q33.05-14.41 34.26-13.87Q35.48-13.32 36.15-12.31Q36.83-11.30 36.83-10L36.83-10L33.41-10Q33.41-10.87 32.88-11.35Q32.34-11.83 31.44-11.83L31.44-11.83Q30.52-11.83 29.99-11.42Q29.45-11.02 29.45-10.39L29.45-10.39Q29.45-9.84 30.04-9.40Q30.63-8.96 32.10-8.48Q33.57-8.01 34.52-7.46L34.52-7.46Q36.83-6.13 36.83-3.80L36.83-3.80Q36.83-1.93 35.42-0.87Q34.01 0.20 31.56 0.20L31.56 0.20Q29.83 0.20 28.43-0.42Q27.03-1.04 26.32-2.12Q25.62-3.20 25.62-4.61L25.62-4.61L29.05-4.61Q29.05-3.47 29.64-2.92Q30.23-2.38 31.56-2.38L31.56-2.38Q32.41-2.38 32.91-2.75Q33.40-3.12 33.40-3.78Z"></path></g></g></svg>