<svg xmlns="http://www.w3.org/2000/svg" version="1.1" xmlns:xlink="http://www.w3.org/1999/xlink" viewBox="0 0 200 200"><rect width="200" height="200" fill="url('#gradient')"></rect><defs><linearGradient id="gradient" gradientTransform="rotate(45 0.5 0.5)"><stop offset="0%" stop-color="#3be80c"></stop><stop offset="100%" stop-color="#42e3b5"></stop></linearGradient></defs><g><g fill="#1b3855" transform="matrix(2.291468531468532,0,0,2.291468531468532,41.541941692278925,116.29659862785073)" stroke="#0e5278" stroke-width="0.8"><path d="M12.96-14.22L12.96 0L9.55 0L9.55-5.94L4.50-5.94L4.50 0L1.07 0L1.07-14.22L4.50-14.22L4.50-8.57L9.55-8.57L9.55-14.22L12.96-14.22ZM23.22-4.81L26.63-4.81Q26.56-3.33 25.83-2.19Q25.10-1.05 23.77-0.43Q22.45 0.20 20.75 0.20L20.75 0.20Q17.95 0.20 16.34-1.63Q14.73-3.46 14.73-6.79L14.73-6.79L14.73-7.49Q14.73-9.58 15.45-11.15Q16.18-12.71 17.55-13.57Q18.92-14.42 20.71-14.42L20.71-14.42Q23.30-14.42 24.87-13.06Q26.45-11.70 26.66-9.31L26.66-9.31L23.24-9.31Q23.20-10.61 22.59-11.17Q21.97-11.74 20.71-11.74L20.71-11.74Q19.43-11.74 18.84-10.78Q18.24-9.82 18.21-7.72L18.21-7.72L18.21-6.72Q18.21-4.44 18.78-3.47Q19.36-2.49 20.75-2.49L20.75-2.49Q21.93-2.49 22.56-3.05Q23.18-3.60 23.22-4.81L23.22-4.81ZM37.21-8.30L37.21-5.66L31.68-5.66L31.68 0L28.25 0L28.25-14.22L37.76-14.22L37.76-11.57L31.68-11.57L31.68-8.30L37.21-8.30ZM46.52-3.78L46.52-3.78Q46.52-4.53 45.99-4.95Q45.46-5.37 44.12-5.82Q42.78-6.27 41.93-6.69L41.93-6.69Q39.17-8.05 39.17-10.42L39.17-10.42Q39.17-11.60 39.86-12.50Q40.55-13.41 41.81-13.91Q43.07-14.41 44.64-14.41L44.64-14.41Q46.17-14.41 47.39-13.87Q48.60-13.32 49.28-12.31Q49.95-11.30 49.95-10L49.95-10L46.53-10Q46.53-10.87 46.00-11.35Q45.47-11.83 44.56-11.83L44.56-11.83Q43.64-11.83 43.11-11.42Q42.58-11.02 42.58-10.39L42.58-10.39Q42.58-9.84 43.16-9.40Q43.75-8.96 45.22-8.48Q46.70-8.01 47.65-7.46L47.65-7.46Q49.95-6.13 49.95-3.80L49.95-3.80Q49.95-1.93 48.54-0.87Q47.14 0.20 44.69 0.20L44.69 0.20Q42.96 0.20 41.56-0.42Q40.16-1.04 39.45-2.12Q38.74-3.20 38.74-4.61L38.74-4.61L42.18-4.61Q42.18-3.47 42.77-2.92Q43.36-2.38 44.69-2.38L44.69-2.38Q45.54-2.38 46.03-2.75Q46.52-3.12 46.52-3.78Z"></path></g></g></svg>